<?xml version="1.0" encoding="UTF-8" standalone="no"?>
<!DOCTYPE svg PUBLIC "-//W3C//DTD SVG 1.1//EN" "http://www.w3.org/Graphics/SVG/1.1/DTD/svg11.dtd">
<svg width="100%" height="100%" viewBox="0 0 1024 1024" version="1.1" xmlns="http://www.w3.org/2000/svg" xmlns:xlink="http://www.w3.org/1999/xlink" xml:space="preserve" xmlns:serif="http://www.serif.com/" style="fill-rule:evenodd;clip-rule:evenodd;stroke-linejoin:round;stroke-miterlimit:2;">
    <g id="NUIT-V2" serif:id="NUIT V2" transform="matrix(0.359142,0,0,0.359142,-15.9747,-32.6398)">
        <path id="_01-cheveux-devant" serif:id="01 cheveux devant" d="M995.606,1226.95C971.328,1263.91 946.87,1307.62 917.438,1344.25C884.075,1385.77 837.383,1433.35 795.429,1476.07C752.78,1519.49 709.008,1565.04 661.544,1604.79C611.515,1646.68 553.038,1691.23 495.253,1727.44C437.71,1763.5 361.187,1803.05 314.835,1822.07C284.115,1834.67 248.802,1851.59 217.144,1841.57C150.866,1820.58 346.506,1416.93 421.473,1300.61C470.719,1224.2 520.184,1139.6 566.315,1087.47C607.442,1041.01 738.306,921.973 784.822,893.123C838.668,859.728 987.951,783.398 1039.07,768.616C1077.02,757.641 1122.96,774.98 1156.45,785.042C1186.59,794.097 1212.35,814.231 1240,828.988C1267.55,843.687 1322.36,873.584 1322.36,873.584C1322.36,873.584 1364.93,872.41 1386.14,870.722C1414.38,868.476 1457.03,861.367 1491.79,860.105C1526.09,858.859 1560.67,858.682 1594.7,863.148C1631.56,867.984 1681.21,864.179 1712.91,889.126C1759.39,925.695 1826.66,1013.1 1873.56,1082.56C1931.81,1168.82 2019.88,1322.95 2062.4,1406.68C2091.1,1463.19 2112.04,1524.91 2128.68,1584.9C2145.14,1644.26 2158.2,1735.55 2164.97,1774.37C2167.47,1788.71 2192.65,2026.82 2165.12,2041.24C2137.59,2055.66 1911.68,1896.29 1867.23,1860.22C1816.64,1819.17 1751.75,1762.04 1704.95,1711.67C1660.92,1664.28 1623.29,1611.15 1586.42,1557.99C1548.08,1502.7 1454.08,1321.12 1444.76,1298.73C1422.19,1244.5 1379.43,1060.18 1379.43,1060.18C1379.43,1060.18 1280.44,1157.62 1244.87,1216C1209.3,1274.38 1165.98,1410.46 1165.98,1410.46C1165.98,1410.46 1155.91,1279.35 1144.02,1225.25C1133.45,1177.1 1094.67,1085.85 1094.67,1085.85C1094.67,1085.85 1026.67,1179.66 995.606,1226.95Z" style="fill:url(#_Linear1);"/>
    </g>
    <defs>
        <linearGradient id="_Linear1" x1="0" y1="0" x2="1" y2="0" gradientUnits="userSpaceOnUse" gradientTransform="matrix(160.636,-912.299,590.134,103.91,1112.8,1919.52)"><stop offset="0" style="stop-color:rgb(234,39,90);stop-opacity:1"/><stop offset="0.57" style="stop-color:rgb(122,38,114);stop-opacity:1"/><stop offset="1" style="stop-color:rgb(72,38,125);stop-opacity:1"/></linearGradient>
    </defs>
</svg>
