<?xml version="1.0" encoding="UTF-8" standalone="no"?>
<!DOCTYPE svg PUBLIC "-//W3C//DTD SVG 1.1//EN" "http://www.w3.org/Graphics/SVG/1.1/DTD/svg11.dtd">
<svg width="100%" height="100%" viewBox="0 0 1024 1024" version="1.1" xmlns="http://www.w3.org/2000/svg" xmlns:xlink="http://www.w3.org/1999/xlink" xml:space="preserve" xmlns:serif="http://www.serif.com/" style="fill-rule:evenodd;clip-rule:evenodd;stroke-linejoin:round;stroke-miterlimit:2;">
    <g id="JOUR-V2" serif:id="JOUR V2" transform="matrix(0.359142,0,0,0.359142,-15.9747,-32.6398)">
        <path id="_03-meche-devant" serif:id="03 meche devant" d="M1926.65,1817.78C1908.02,1855.07 1942.98,1994.64 1935.19,2080.26C1927.43,2165.65 1902.53,2248.78 1879.93,2331.49C1857.26,2414.48 1824.97,2506.38 1799.15,2578.22C1776.74,2640.53 1747.79,2708.12 1724.98,2762.51C1704.97,2810.24 1657.73,2889.14 1662.32,2904.57C1666.91,2920 1724.97,2875.51 1752.52,2855.09C1795.47,2823.26 1871.86,2762.82 1920.02,2713.57C1965.73,2666.81 2009.51,2606.07 2041.48,2559.54C2068.59,2520.1 2111.87,2434.4 2111.87,2434.4C2111.87,2434.4 2138.04,2493.05 2146.57,2523.89C2156.17,2558.6 2165.85,2605.24 2169.48,2642.68C2172.88,2677.81 2156.58,2742.68 2168.32,2748.54C2180.06,2754.4 2221.88,2706.14 2239.92,2677.87C2264.65,2639.1 2296.03,2571.79 2316.72,2515.96C2337.4,2460.14 2353.98,2401.86 2364.02,2342.9C2374.16,2283.28 2379.83,2216.71 2377.59,2158.27C2375.45,2102.24 2361.16,2042.36 2350.63,1992.25C2341.07,1946.78 2328.57,1898.58 2314.37,1857.64C2301.12,1819.42 2292.99,1774.86 2265.44,1746.61C2237.89,1718.36 2177.93,1679.45 2149.08,1688.14C2120.22,1696.83 2109.3,1770.67 2092.29,1798.74C2079.61,1819.67 2071.33,1853.75 2047.01,1856.55C2019.4,1859.72 1945.29,1780.5 1926.65,1817.78Z" style="fill:url(#_Linear1);"/>
    </g>
    <defs>
        <linearGradient id="_Linear1" x1="0" y1="0" x2="1" y2="0" gradientUnits="userSpaceOnUse" gradientTransform="matrix(226.467,-590.992,590.992,226.467,1852.72,2408.93)"><stop offset="0" style="stop-color:rgb(83,220,192);stop-opacity:1"/><stop offset="1" style="stop-color:rgb(8,140,147);stop-opacity:1"/></linearGradient>
    </defs>
</svg>
