<?xml version="1.0" encoding="UTF-8" standalone="no"?>
<!DOCTYPE svg PUBLIC "-//W3C//DTD SVG 1.1//EN" "http://www.w3.org/Graphics/SVG/1.1/DTD/svg11.dtd">
<svg width="100%" height="100%" viewBox="0 0 1024 1024" version="1.1" xmlns="http://www.w3.org/2000/svg" xmlns:xlink="http://www.w3.org/1999/xlink" xml:space="preserve" xmlns:serif="http://www.serif.com/" style="fill-rule:evenodd;clip-rule:evenodd;stroke-linejoin:round;stroke-miterlimit:2;">
    <g id="NUIT-V2" serif:id="NUIT V2" transform="matrix(0.359142,0,0,0.359142,-15.9747,-32.6398)">
        <g id="_04-langue-sourcil-nez" serif:id="04 langue sourcil nez">
            <path d="M934.215,2374.22C934.215,2374.22 954.641,2361 966.311,2359.74C978.96,2358.38 998.045,2360.19 1010.11,2366.06C1022.17,2371.93 1034,2383.14 1038.7,2394.96C1043.4,2406.78 1041.63,2423.39 1038.3,2437C1034.96,2450.68 1028.49,2465.92 1018.61,2477.04C1006.72,2490.42 983.651,2508.74 966.944,2517.28C952.162,2524.84 932.084,2530.62 918.371,2528.3C904.658,2525.98 893.682,2514.05 884.665,2503.37C874.412,2491.23 864.075,2471.2 856.853,2455.46C850.033,2440.6 845.509,2423.59 841.328,2408.93C837.442,2395.3 832.319,2378.65 831.77,2367.5C831.34,2358.76 831.102,2347.34 838.037,2342C845.313,2336.4 864.031,2332.7 875.428,2333.89C886.824,2335.09 896.919,2342.66 906.417,2349.18C916.215,2355.9 934.215,2374.22 934.215,2374.22Z" style="fill:rgb(207,64,110);"/>
            <path id="langue" d="M1060.72,2643.12C1057.47,2645.01 1047.15,2651.04 1041.57,2654.38C1032.38,2659.89 1017.48,2667.37 1006.58,2675.56C989.902,2688.09 958.97,2711.91 941.492,2729.58C926.148,2745.08 914.56,2772.38 901.712,2781.55C891.554,2788.79 875.969,2789.23 864.404,2784.55C852.716,2779.82 840.067,2765.7 831.589,2753.17C820.822,2737.24 804.618,2712.38 799.802,2689C794.706,2664.27 795.716,2626.83 801.014,2604.74C804.629,2589.68 822.62,2567.18 829.185,2559.33C858.133,2567.77 901.24,2572.7 921.275,2574.24C934.999,2575.28 943.987,2587.52 955.398,2594.07C980.72,2608.6 1038.3,2637.54 1058.98,2642.68C1059.56,2642.82 1060.14,2642.97 1060.72,2643.12Z" style="fill:rgb(207,64,110);"/>
            <clipPath id="_clip1">
                <path id="langue1" serif:id="langue" d="M1060.72,2643.12C1057.47,2645.01 1047.15,2651.04 1041.57,2654.38C1032.38,2659.89 1017.48,2667.37 1006.58,2675.56C989.902,2688.09 958.97,2711.91 941.492,2729.58C926.148,2745.08 914.56,2772.38 901.712,2781.55C891.554,2788.79 875.969,2789.23 864.404,2784.55C852.716,2779.82 840.067,2765.7 831.589,2753.17C820.822,2737.24 804.618,2712.38 799.802,2689C794.706,2664.27 795.716,2626.83 801.014,2604.74C804.629,2589.68 822.62,2567.18 829.185,2559.33C858.133,2567.77 901.24,2572.7 921.275,2574.24C934.999,2575.28 943.987,2587.52 955.398,2594.07C980.72,2608.6 1038.3,2637.54 1058.98,2642.68C1059.56,2642.82 1060.14,2642.97 1060.72,2643.12Z"/>
            </clipPath>
            <g clip-path="url(#_clip1)">
                <path d="M864.995,2706.4C861.928,2710.67 865.343,2680.53 868.194,2668.01C871.26,2654.54 878.059,2637.48 883.392,2625.61C887.947,2615.48 894.457,2605.48 900.19,2596.82C905.544,2588.72 912.97,2576.95 917.787,2573.62C921.008,2571.39 930.44,2573.14 929.094,2576.82C927.095,2582.28 912.617,2595.88 905.789,2606.41C898.705,2617.35 891.728,2629.82 886.592,2642.41C879.792,2659.07 868.061,2702.14 864.995,2706.4Z" style="fill:rgb(131,32,66);"/>
            </g>
            <g id="sourcils">
                <path d="M1261.44,1929.7C1256.46,1914.75 1257.96,1882.6 1264.49,1860.43C1271.08,1838.03 1284.98,1814.39 1300.97,1795.34C1317.55,1775.58 1341.6,1753.77 1364,1741.88C1385.67,1730.38 1413.83,1724.82 1435.38,1724.01C1455.15,1723.26 1483.65,1727.43 1493.3,1737C1502.95,1746.56 1498.28,1767.47 1493.3,1781.41C1487.12,1798.74 1471.65,1823.43 1456.18,1840.98C1436.93,1862.82 1404.75,1894.25 1377.79,1912.44C1352.5,1929.5 1313.78,1947.25 1294.39,1950.13C1281.6,1952.02 1265.53,1941.96 1261.44,1929.7Z" style="fill:rgb(83,220,192);"/>
                <path d="M880.277,1804.12C866.828,1780.88 854.543,1751.84 848.253,1730.19C843.022,1712.19 837.144,1686.45 842.533,1674.26C847.922,1662.06 866.939,1654.28 880.588,1657.03C897.603,1660.47 927.132,1677.29 944.623,1694.85C962.225,1712.53 975.328,1739.39 986.197,1763.1C996.991,1786.65 1009.11,1817.11 1009.84,1837.14C1010.45,1853.79 1003.52,1876.89 990.592,1883.27C977.665,1889.65 948.213,1886.86 932.277,1875.43C913.891,1862.24 894.281,1828.33 880.277,1804.12Z" style="fill:rgb(83,220,192);"/>
            </g>
        </g>
    </g>
</svg>
