<?xml version="1.0" encoding="UTF-8" standalone="no"?>
<!DOCTYPE svg PUBLIC "-//W3C//DTD SVG 1.1//EN" "http://www.w3.org/Graphics/SVG/1.1/DTD/svg11.dtd">
<svg width="100%" height="100%" viewBox="0 0 1024 1024" version="1.1" xmlns="http://www.w3.org/2000/svg" xmlns:xlink="http://www.w3.org/1999/xlink" xml:space="preserve" xmlns:serif="http://www.serif.com/" style="fill-rule:evenodd;clip-rule:evenodd;stroke-linejoin:round;stroke-miterlimit:2;">
    <g id="JOUR-V2" serif:id="JOUR V2" transform="matrix(0.359142,0,0,0.359142,-15.9747,-32.6398)">
        <g id="_05-line-visage" serif:id="05 line visage">
            <g>
                <path d="M1231.85,2153.02C1240.2,2141.37 1325.16,2070.56 1372.8,2043.23C1417.52,2017.58 1478.76,2001.38 1517.66,1989.08C1546.5,1979.96 1576.23,1973.11 1606.25,1969.45C1637.57,1965.62 1672.59,1963.17 1705.58,1966.13C1741.97,1969.41 1788.42,1977.87 1824.54,1989.08C1858.72,1999.68 1922.31,2033.39 1922.31,2033.39C1922.31,2033.39 1869.02,2118.52 1835.83,2155.9C1801.32,2194.76 1726.58,2263.42 1715.26,2266.57C1703.95,2269.72 1750.76,2205.61 1767.93,2174.8C1785.66,2143.01 1821.6,2075.8 1821.6,2075.8C1821.6,2075.8 1729.26,2045.02 1681.28,2043.23C1623.53,2041.08 1534.84,2051.24 1475.07,2062.89C1422.56,2073.12 1363.19,2098.11 1322.66,2113.13C1291.66,2124.62 1223.49,2164.67 1231.85,2153.02Z"/>
                <path d="M610.709,2000.55C605.789,2000.15 579.565,1946.47 568.261,1922.88C558.362,1902.23 550.211,1880.28 542.886,1859.03C535.683,1838.13 529.52,1814.57 524.312,1795.37C519.678,1778.28 511.635,1743.78 511.635,1743.78C511.635,1743.78 535.06,1744.23 546.586,1746.09C570.736,1750 621.005,1755.79 656.53,1767.22C693.752,1779.19 736.038,1794.13 769.917,1817.94C804.884,1842.51 843.973,1888.2 866.333,1914.62C881.938,1933.06 894.698,1957.02 904.082,1976.49C912.472,1993.89 922.634,2031.39 922.634,2031.39C922.634,2031.39 889.96,1984.84 869.97,1964.82C846.885,1941.69 811.797,1912.02 784.125,1892.64C759.141,1875.15 730.441,1861.01 703.943,1848.56C678.435,1836.58 644.638,1824.96 625.136,1817.94C612.62,1813.43 586.928,1806.41 586.928,1806.41C586.928,1806.41 587.937,1845.47 589.712,1864.91C591.521,1884.72 594.675,1905.22 597.781,1925.28C601.28,1947.89 615.629,2000.95 610.709,2000.55Z"/>
                <path d="M575.163,2079.16C575.163,2079.16 597.813,2078.71 606.535,2077.49C613.702,2076.48 621.505,2074.26 627.495,2071.83C632.882,2069.64 642.476,2062.89 642.476,2062.89C642.476,2062.89 653.044,2078.85 658.564,2086.66C664.787,2095.47 672.322,2106.37 679.813,2115.75C687.732,2125.67 697.746,2137.61 706.08,2146.19C713.447,2153.77 721.877,2161.56 729.819,2167.22C737.201,2172.48 745.536,2176.3 753.735,2180.17C762.182,2184.15 771.462,2188.01 780.498,2191.13C789.485,2194.22 808.418,2198.33 807.949,2198.86C807.479,2199.39 787.494,2197.12 777.681,2194.33C765.484,2190.87 746.333,2184.05 734.767,2178.07C725.007,2173.02 716.598,2165.62 708.288,2158.43C699.539,2150.86 689.774,2140.28 682.271,2132.64C675.814,2126.05 671.66,2116.35 663.268,2112.53C652.943,2107.83 632.375,2107.92 620.322,2104.43C610.058,2101.45 598.477,2095.79 590.95,2091.58C585.107,2088.31 575.163,2079.16 575.163,2079.16Z"/>
                <path d="M1263.26,2252.49C1265.2,2256.48 1289.66,2294.67 1305.82,2313.3C1327.95,2338.82 1358.46,2365.08 1379.73,2375.07C1403.19,2386.09 1435.19,2402.34 1465.3,2405.71C1498.11,2409.38 1545.31,2403.82 1576.62,2397.12C1603.62,2391.34 1637.07,2372.61 1653.19,2365.49C1660.21,2362.39 1673.37,2354.41 1673.37,2354.41C1677.51,2351.07 1723,2352.86 1737.42,2364.07C1743.43,2368.73 1756.72,2376.24 1756.72,2376.24C1756.72,2376.24 1745.64,2355.54 1737.57,2347.22C1729.3,2338.69 1718.44,2330.36 1707.09,2325.07C1695.73,2319.79 1669.45,2315.53 1669.45,2315.53C1669.45,2315.53 1661.67,2319.1 1657.18,2321.65C1647.79,2326.98 1627.53,2337.42 1612.7,2345.3C1585.59,2359.73 1518.86,2387.51 1475.07,2385.14C1448.66,2383.7 1419.03,2376.57 1397.3,2369.39C1378.53,2363.2 1360.3,2354.2 1344.68,2342.09C1327.49,2328.76 1307.74,2304.34 1294.17,2289.4C1283.38,2277.53 1261.32,2248.51 1263.26,2252.49Z"/>
            </g>
            <g transform="matrix(1.08533,0,0,1.08533,-130.171,-76.4644)">
                <path d="M968.781,2442.3C946.833,2440.62 894.837,2434.51 870.442,2423.82C852.963,2416.16 835.22,2408.31 819.889,2396.94C804.318,2385.4 788.798,2370.84 777.015,2354.57C764.11,2336.74 750.868,2309.06 742.46,2289.99C735.426,2274.04 728.06,2254.12 726.567,2240.16C725.339,2228.69 729.466,2213.52 733.501,2206.25C736.706,2200.48 746.086,2194.75 750.779,2196.57C755.471,2198.38 760.45,2209.47 761.657,2217.13C762.937,2225.25 758.292,2235.84 758.458,2245.28C758.671,2257.43 759.605,2275.39 762.937,2289.99C766.563,2305.88 771.789,2325.15 780.214,2340.63C788.64,2356.11 801.865,2371.88 813.49,2382.86C824.025,2392.82 839.113,2400.46 849.964,2406.54C859.086,2411.65 870.025,2415.93 878.6,2419.34C886.053,2422.3 893.569,2425.32 901.414,2426.99C913.013,2429.46 936.24,2432.86 948.195,2434.16C956.467,2435.05 965.564,2432.27 973.148,2434.78C980.731,2437.3 986.588,2444.82 993.697,2449.25C1002.82,2454.94 1016.18,2462.93 1027.88,2468.91C1042.54,2476.39 1063,2488.52 1081.62,2494.14C1100.24,2499.76 1120.27,2505.39 1139.61,2502.64C1161.19,2499.56 1193.42,2483.6 1211.14,2475.7C1223.44,2470.21 1234.88,2462.87 1245.95,2455.22C1263.91,2442.81 1303.3,2414.92 1318.87,2401.22C1327.58,2393.56 1333.03,2378.36 1339.34,2373.07C1343.88,2369.26 1351.54,2367.69 1356.75,2369.49C1361.95,2371.28 1370.4,2377.59 1370.57,2383.82C1370.74,2390.05 1362.89,2400.03 1357.77,2406.86C1352.7,2413.61 1347.08,2420.4 1339.85,2424.77C1317.26,2438.43 1255.17,2474.17 1222.21,2488.8C1196.75,2500.11 1163.19,2509.81 1142.1,2512.57C1126.56,2514.6 1110.86,2509.14 1095.66,2505.36C1076.6,2500.63 1023.55,2473.97 1000.22,2460.58C989.708,2454.54 981.426,2443.26 968.781,2442.3Z" style="fill:rgb(0,10,43);"/>
            </g>
        </g>
    </g>
</svg>
