<?xml version="1.0" encoding="UTF-8" standalone="no"?>
<!DOCTYPE svg PUBLIC "-//W3C//DTD SVG 1.1//EN" "http://www.w3.org/Graphics/SVG/1.1/DTD/svg11.dtd">
<svg width="100%" height="100%" viewBox="0 0 1024 1024" version="1.1" xmlns="http://www.w3.org/2000/svg" xmlns:xlink="http://www.w3.org/1999/xlink" xml:space="preserve" xmlns:serif="http://www.serif.com/" style="fill-rule:evenodd;clip-rule:evenodd;stroke-linejoin:round;stroke-miterlimit:2;">
    <g id="JOUR-V2" serif:id="JOUR V2" transform="matrix(0.359142,0,0,0.359142,-15.9747,-32.6398)">
        <g id="_07-blanc-yeux" serif:id="07 blanc yeux">
            <path d="M588.96,1931.18C593.271,1948.19 605.732,1988.84 615.494,2012.86C624.303,2034.54 633.889,2056.32 647.531,2075.33C664.471,2098.94 693.565,2134.5 717.135,2154.53C738.136,2172.37 769.872,2188.66 788.948,2195.49C802.329,2200.29 820.731,2203.96 831.589,2195.52C842.446,2187.09 844.771,2157.9 854.093,2144.88C862.492,2133.14 884.23,2131.41 887.523,2117.36C893.638,2091.26 894.738,2018.4 890.786,1988.3C888.261,1969.07 879.065,1948.73 863.811,1936.76C824.568,1905.96 702.257,1828.51 655.333,1803.51C633.279,1791.75 596.76,1780.99 582.267,1786.72C567.774,1792.45 567.327,1820.24 568.373,1837.88C569.599,1858.57 586.193,1895.28 589.624,1910.83C591.086,1917.46 587.291,1924.6 588.96,1931.18Z" style="fill:white;"/>
            <path d="M1638.73,2347.47C1658.98,2327.19 1705.54,2276.65 1729.75,2246.62C1749.85,2221.7 1766.73,2194.3 1784,2167.33C1801.78,2139.58 1829.39,2097.49 1836.42,2080.08C1838.92,2073.9 1832.45,2065.18 1826.18,2062.89C1798.72,2052.85 1725.07,2018.49 1671.6,2019.83C1600.02,2021.63 1460.42,2057.13 1396.69,2073.68C1359.03,2083.46 1316.64,2105.91 1289.17,2119.14C1269.16,2128.77 1231.85,2153.06 1231.85,2153.06C1231.85,2153.06 1241.77,2198.94 1249.15,2221.18C1257.27,2245.64 1271.16,2267.51 1287.69,2284.51C1306.98,2304.33 1326,2335.47 1353.04,2350.61C1384.48,2368.22 1433.85,2387.23 1476.38,2390.18C1518.91,2393.13 1581.15,2375.43 1608.2,2368.31C1620.12,2365.18 1630.02,2356.19 1638.73,2347.47Z" style="fill:white;"/>
        </g>
    </g>
</svg>
