<?xml version="1.0" encoding="UTF-8" standalone="no"?>
<!DOCTYPE svg PUBLIC "-//W3C//DTD SVG 1.1//EN" "http://www.w3.org/Graphics/SVG/1.1/DTD/svg11.dtd">
<svg width="100%" height="100%" viewBox="0 0 1024 1024" version="1.1" xmlns="http://www.w3.org/2000/svg" xmlns:xlink="http://www.w3.org/1999/xlink" xml:space="preserve" xmlns:serif="http://www.serif.com/" style="fill-rule:evenodd;clip-rule:evenodd;stroke-linejoin:round;stroke-miterlimit:2;">
    <g id="JOUR-V2" serif:id="JOUR V2" transform="matrix(0.359142,0,0,0.359142,-15.9747,-32.6398)">
        <g id="_08-visage-interieur-cheveux" serif:id="08 visage interieur cheveux">
            <g id="Calque2">
                <path d="M443.361,1662.3C447.2,1718.26 525.532,1890.47 537.31,1968.77C545.49,2023.14 516.985,2077.17 514.031,2132.08C510.896,2190.35 502.171,2258.45 518.501,2318.39C537.031,2386.4 582.281,2470.25 625.213,2540.15C669.635,2612.48 734.574,2696.74 785.036,2752.36C827.058,2798.68 867.799,2856.89 927.986,2873.88C1001.64,2894.67 1136.25,2884.06 1226.94,2877.12C1309.81,2870.77 1394.78,2851.45 1472.18,2832.2C1546.68,2813.68 1644.23,2779.29 1691.4,2761.64C1714.17,2753.12 1738.84,2744.28 1755.2,2726.29C1782.98,2695.72 1833.43,2633.05 1858.08,2578.24C1886.64,2514.74 1906.64,2419.66 1926.54,2345.31C1945.44,2274.72 1961.91,2199.12 1977.49,2132.08C1992.12,2069.18 2023.98,1990.34 2020.04,1943.07C2016.84,1904.71 1981.77,1874.95 1953.84,1848.46C1919.32,1815.72 1851.88,1789.52 1812.92,1746.61C1764.28,1693.04 1708.88,1595.6 1662.01,1527.07C1618.39,1463.3 1562.84,1377.29 1531.68,1335.42C1515.33,1313.44 1501.03,1284.6 1475.07,1275.84C1441,1264.35 1371.8,1261.5 1327.28,1266.48C1285.66,1271.14 1249.74,1308.57 1207.96,1305.75C1165.97,1302.91 1120.82,1258.4 1075.34,1249.47C1029.85,1240.54 977.156,1231.78 935.057,1252.15C890.933,1273.5 851.95,1335.64 810.59,1377.58C765.401,1423.4 713.308,1484.5 663.922,1527.07C617.63,1566.97 551.035,1610.47 514.274,1633.01C492.471,1646.38 441.61,1636.79 443.361,1662.3Z" style="fill:rgb(255,241,212);"/>
                <clipPath id="_clip1">
                    <path d="M443.361,1662.3C447.2,1718.26 525.532,1890.47 537.31,1968.77C545.49,2023.14 516.985,2077.17 514.031,2132.08C510.896,2190.35 502.171,2258.45 518.501,2318.39C537.031,2386.4 582.281,2470.25 625.213,2540.15C669.635,2612.48 734.574,2696.74 785.036,2752.36C827.058,2798.68 867.799,2856.89 927.986,2873.88C1001.64,2894.67 1136.25,2884.06 1226.94,2877.12C1309.81,2870.77 1394.78,2851.45 1472.18,2832.2C1546.68,2813.68 1644.23,2779.29 1691.4,2761.64C1714.17,2753.12 1738.84,2744.28 1755.2,2726.29C1782.98,2695.72 1833.43,2633.05 1858.08,2578.24C1886.64,2514.74 1906.64,2419.66 1926.54,2345.31C1945.44,2274.72 1961.91,2199.12 1977.49,2132.08C1992.12,2069.18 2023.98,1990.34 2020.04,1943.07C2016.84,1904.71 1981.77,1874.95 1953.84,1848.46C1919.32,1815.72 1851.88,1789.52 1812.92,1746.61C1764.28,1693.04 1708.88,1595.6 1662.01,1527.07C1618.39,1463.3 1562.84,1377.29 1531.68,1335.42C1515.33,1313.44 1501.03,1284.6 1475.07,1275.84C1441,1264.35 1371.8,1261.5 1327.28,1266.48C1285.66,1271.14 1249.74,1308.57 1207.96,1305.75C1165.97,1302.91 1120.82,1258.4 1075.34,1249.47C1029.85,1240.54 977.156,1231.78 935.057,1252.15C890.933,1273.5 851.95,1335.64 810.59,1377.58C765.401,1423.4 713.308,1484.5 663.922,1527.07C617.63,1566.97 551.035,1610.47 514.274,1633.01C492.471,1646.38 441.61,1636.79 443.361,1662.3Z"/>
                </clipPath>
                <g clip-path="url(#_clip1)">
                    <path d="M451.564,1716.9C487.878,1752.66 642.492,1764.81 717.97,1808.86C791.065,1851.51 878.968,1915.15 904.432,1981.18C931.205,2050.6 960.123,2151.61 966.484,2153.12C966.484,2153.12 836.264,2316.84 831.953,2353.72C827.672,2390.35 912.613,2370.47 940.618,2374.45C960.236,2377.23 984.34,2371.98 999.979,2377.58C1014.42,2382.75 1020.59,2414.61 1034.45,2408.04C1078.37,2387.25 1263.47,2252.83 1263.47,2252.83C1263.47,2252.83 1233.46,2189.74 1240.26,2164.27C1247.06,2138.81 1277.17,2113.46 1304.26,2100.05C1357.62,2073.61 1474.09,2015.13 1560.48,2005.66C1646.87,1996.19 1768.04,2036.97 1822.59,2043.23C1844.18,2045.71 1866.89,2049.23 1887.77,2043.23C1909.12,2037.11 1952.63,2030.7 1950.7,2006.48C1945.95,1947.1 1913.94,1783.28 1859.28,1686.9C1796.1,1575.5 1646.68,1412.31 1571.61,1338.06C1526.74,1293.68 1471.59,1247.96 1408.83,1241.37C1337.06,1233.83 1215.52,1295.01 1140.98,1292.83C1077.45,1290.97 1023.93,1216.06 961.56,1228.3C891.897,1241.96 796.116,1316.84 722.997,1374.83C646.084,1435.83 545.322,1537.29 500.083,1594.31C472.765,1628.73 420.248,1686.06 451.564,1716.9Z" style="fill:rgb(113,136,203);"/>
                </g>
            </g>
            <path id="cheveux-devant" serif:id="cheveux devant" d="M895.586,1336.88C913.087,1301.58 953.099,1250.66 977.377,1213.69C1008.44,1166.4 1101.93,1038.13 1101.93,1038.13C1101.93,1038.13 1148.99,1170.12 1159.57,1218.27C1171.45,1272.37 1176.39,1331.53 1176.39,1331.53C1176.39,1331.53 1207.79,1240.81 1243.37,1182.43C1278.94,1124.05 1392.99,1027.28 1392.99,1027.28L1469.48,1352.02L1303.44,1413.86L1310.51,1325.16L1166.84,1411.19L1079.1,1301.49L1049.79,1394.83L895.586,1336.88Z"/>
        </g>
    </g>
</svg>
