<?xml version="1.0" encoding="UTF-8" standalone="no"?>
<!DOCTYPE svg PUBLIC "-//W3C//DTD SVG 1.1//EN" "http://www.w3.org/Graphics/SVG/1.1/DTD/svg11.dtd">
<svg width="100%" height="100%" viewBox="0 0 1024 1024" version="1.1" xmlns="http://www.w3.org/2000/svg" xmlns:xlink="http://www.w3.org/1999/xlink" xml:space="preserve" xmlns:serif="http://www.serif.com/" style="fill-rule:evenodd;clip-rule:evenodd;stroke-linejoin:round;stroke-miterlimit:2;">
    <g id="JOUR-V2" serif:id="JOUR V2" transform="matrix(0.359142,0,0,0.359142,-15.9747,-32.6398)">
        <g id="_09-meche-arriere" serif:id="09 meche arriere">
            <path d="M402.579,1093.63C379.81,1098.39 340.556,1177.13 304.135,1214.03C265.774,1252.88 204.06,1302.74 172.411,1326.77C154.859,1340.09 100.517,1344.79 114.239,1358.18C127.962,1371.56 210.702,1399.89 254.744,1407.08C295.499,1413.73 350.092,1406.9 378.491,1401.31C396.248,1397.81 420.122,1390.91 425.138,1373.52C435.515,1337.55 444.511,1232.13 440.751,1185.48C438.087,1152.43 425.349,1088.87 402.579,1093.63Z" style="fill:url(#_Linear1);"/>
            <path d="M2586.35,1379.82C2627.41,1395.46 2640.12,1520.52 2671.2,1570.22C2697.38,1612.1 2746.07,1654.08 2772.8,1678.05C2789.92,1693.4 2838.72,1702.9 2831.63,1714.08C2824.54,1725.26 2765.49,1742.22 2730.28,1745.12C2681.79,1749.11 2590.03,1744.51 2540.74,1738.01C2504.08,1733.18 2466.19,1723.41 2434.51,1706.13C2402.84,1688.85 2352.23,1671.09 2350.68,1634.33C2349.07,1596.03 2385.57,1518.8 2424.85,1476.38C2464.13,1433.96 2545.29,1364.18 2586.35,1379.82Z" style="fill:url(#_Linear2);"/>
            <path d="M414.61,1716.39C394.244,1754.52 369.176,1848.38 350.958,1915.69C332.076,1985.47 311.116,2064.17 301.32,2135.02C291.916,2203.03 291.672,2281.5 292.181,2340.8C292.611,2390.98 299.752,2451.48 304.372,2490.83C307.771,2519.78 312.482,2588.65 319.897,2576.9C329.486,2561.72 360.379,2495.12 382.061,2460.67C402.148,2428.74 427.032,2397.4 449.986,2370.18C471.665,2344.47 503.525,2320.51 519.786,2297.33C533.536,2277.72 543.301,2254.64 547.548,2231.07C553.194,2199.74 550.383,2149.83 553.662,2109.34C557.075,2067.17 568.62,2016.21 568.031,1978.09C567.521,1945.07 559.003,1912.45 550.127,1880.64C539.362,1842.06 516.271,1778.9 503.442,1746.61C495.203,1725.87 487.962,1691.94 473.157,1686.9C458.352,1681.86 424.905,1697.11 414.61,1716.39Z" style="fill:url(#_Linear3);"/>
        </g>
    </g>
    <defs>
        <linearGradient id="_Linear1" x1="0" y1="0" x2="1" y2="0" gradientUnits="userSpaceOnUse" gradientTransform="matrix(611.418,-780.284,780.284,611.418,94.618,1685.93)"><stop offset="0" style="stop-color:rgb(83,220,192);stop-opacity:1"/><stop offset="1" style="stop-color:rgb(8,101,147);stop-opacity:1"/></linearGradient>
        <linearGradient id="_Linear2" x1="0" y1="0" x2="1" y2="0" gradientUnits="userSpaceOnUse" gradientTransform="matrix(-705.922,-629.002,629.002,-705.922,2988.19,1981.62)"><stop offset="0" style="stop-color:rgb(83,220,192);stop-opacity:1"/><stop offset="1" style="stop-color:rgb(8,146,147);stop-opacity:1"/></linearGradient>
        <linearGradient id="_Linear3" x1="0" y1="0" x2="1" y2="0" gradientUnits="userSpaceOnUse" gradientTransform="matrix(232.427,-936.995,936.995,232.427,303.206,2489.52)"><stop offset="0" style="stop-color:rgb(83,220,192);stop-opacity:1"/><stop offset="1" style="stop-color:rgb(8,116,147);stop-opacity:1"/></linearGradient>
    </defs>
</svg>
