<?xml version="1.0" encoding="UTF-8" standalone="no"?>
<!DOCTYPE svg PUBLIC "-//W3C//DTD SVG 1.1//EN" "http://www.w3.org/Graphics/SVG/1.1/DTD/svg11.dtd">
<svg width="100%" height="100%" viewBox="0 0 1024 1024" version="1.1" xmlns="http://www.w3.org/2000/svg" xmlns:xlink="http://www.w3.org/1999/xlink" xml:space="preserve" xmlns:serif="http://www.serif.com/" style="fill-rule:evenodd;clip-rule:evenodd;stroke-linejoin:round;stroke-miterlimit:2;">
    <g id="NUIT-V2" serif:id="NUIT V2" transform="matrix(0.359142,0,0,0.359142,-15.9747,-32.6398)">
        <path id="_02-cheuveux-arriere" serif:id="02 cheuveux arriere" d="M611.219,1116.25C565.565,1168.78 441.185,1337.51 437.584,1333.47C427.889,1308.68 325.441,1028.73 345.621,864.193C356.579,774.847 361.004,683.643 386.119,597.203C411.987,508.173 455.648,404.93 500.826,330.013C542.169,261.454 613.353,163.94 657.187,147.702C731.347,120.232 742.859,253.63 781.099,319.467C828.137,400.452 945.188,534.12 945.188,534.12C945.188,534.12 1177.16,455.391 1287.9,408.83C1388.79,366.41 1504.66,329.135 1611,334.641C1691.51,338.809 1882.31,548.504 1905.5,572.381C1905.5,572.381 1898.39,460.477 1883.64,406.792C1868.02,349.954 1811.78,231.355 1811.78,231.355C1811.78,231.355 1962.48,292.875 2003.61,333.713C2039.77,369.62 2062.5,430.996 2058.52,476.386C2054.53,521.775 1979.7,606.049 1979.7,606.049C1979.7,606.049 2090.26,608.908 2136.82,622.766C2181.28,635.997 2229.51,660.54 2259.1,689.197C2287.61,716.818 2314.35,794.711 2314.35,794.711C2314.35,794.711 2480.59,755.866 2549.88,728.951C2613.28,704.324 2686.23,635.383 2730.06,633.221C2769.04,631.299 2797.15,680.26 2812.86,715.981C2829.76,754.405 2832.39,814.127 2831.47,863.77C2830.51,915.05 2819.31,974.158 2807.14,1023.66C2795.56,1070.76 2778.05,1116.41 2758.45,1160.78C2738.26,1206.48 2712.87,1253.7 2685.98,1297.84C2653.94,1350.44 2610.73,1420.21 2566.22,1476.38C2519.36,1535.5 2404.84,1652.59 2404.84,1652.59C2404.84,1652.59 2449.24,1750.29 2472.18,1798.8C2495.59,1848.33 2553.89,1930.96 2545.32,1949.8C2536.76,1968.64 2460.59,1929.12 2420.79,1911.82C2371.06,1890.2 2290.05,1844.3 2246.95,1820.09C2221.09,1805.57 2119.44,1759.05 2119.44,1759.05C2119.44,1759.05 2106.55,1661.25 2090.08,1601.89C2073.44,1541.9 2055.61,1482.39 2026.91,1425.88C1984.39,1342.15 1899.81,1191.99 1841.56,1105.73C1794.65,1036.27 1771.51,996.974 1725.03,960.405C1693.32,935.458 1645.99,912.874 1609.13,908.037C1575.1,903.571 1432.12,904.657 1403.88,906.903C1382.67,908.591 1306.32,905.354 1306.32,905.354C1306.32,905.354 1235.96,871.054 1208.42,856.355C1180.77,841.598 1086.18,784.779 1048.23,795.755C997.111,810.537 651.786,1069.57 611.219,1116.25Z" style="fill:url(#_Linear1);"/>
        <clipPath id="_clip2">
            <path id="_02-cheuveux-arriere1" serif:id="02 cheuveux arriere" d="M611.219,1116.25C565.565,1168.78 441.185,1337.51 437.584,1333.47C427.889,1308.68 325.441,1028.73 345.621,864.193C356.579,774.847 361.004,683.643 386.119,597.203C411.987,508.173 455.648,404.93 500.826,330.013C542.169,261.454 613.353,163.94 657.187,147.702C731.347,120.232 742.859,253.63 781.099,319.467C828.137,400.452 945.188,534.12 945.188,534.12C945.188,534.12 1177.16,455.391 1287.9,408.83C1388.79,366.41 1504.66,329.135 1611,334.641C1691.51,338.809 1882.31,548.504 1905.5,572.381C1905.5,572.381 1898.39,460.477 1883.64,406.792C1868.02,349.954 1811.78,231.355 1811.78,231.355C1811.78,231.355 1962.48,292.875 2003.61,333.713C2039.77,369.62 2062.5,430.996 2058.52,476.386C2054.53,521.775 1979.7,606.049 1979.7,606.049C1979.7,606.049 2090.26,608.908 2136.82,622.766C2181.28,635.997 2229.51,660.54 2259.1,689.197C2287.61,716.818 2314.35,794.711 2314.35,794.711C2314.35,794.711 2480.59,755.866 2549.88,728.951C2613.28,704.324 2686.23,635.383 2730.06,633.221C2769.04,631.299 2797.15,680.26 2812.86,715.981C2829.76,754.405 2832.39,814.127 2831.47,863.77C2830.51,915.05 2819.31,974.158 2807.14,1023.66C2795.56,1070.76 2778.05,1116.41 2758.45,1160.78C2738.26,1206.48 2712.87,1253.7 2685.98,1297.84C2653.94,1350.44 2610.73,1420.21 2566.22,1476.38C2519.36,1535.5 2404.84,1652.59 2404.84,1652.59C2404.84,1652.59 2449.24,1750.29 2472.18,1798.8C2495.59,1848.33 2553.89,1930.96 2545.32,1949.8C2536.76,1968.64 2460.59,1929.12 2420.79,1911.82C2371.06,1890.2 2290.05,1844.3 2246.95,1820.09C2221.09,1805.57 2119.44,1759.05 2119.44,1759.05C2119.44,1759.05 2106.55,1661.25 2090.08,1601.89C2073.44,1541.9 2055.61,1482.39 2026.91,1425.88C1984.39,1342.15 1899.81,1191.99 1841.56,1105.73C1794.65,1036.27 1771.51,996.974 1725.03,960.405C1693.32,935.458 1645.99,912.874 1609.13,908.037C1575.1,903.571 1432.12,904.657 1403.88,906.903C1382.67,908.591 1306.32,905.354 1306.32,905.354C1306.32,905.354 1235.96,871.054 1208.42,856.355C1180.77,841.598 1086.18,784.779 1048.23,795.755C997.111,810.537 651.786,1069.57 611.219,1116.25Z"/>
        </clipPath>
        <g clip-path="url(#_clip2)">
            <g id="interieur-oreille" serif:id="interieur oreille">
                <path d="M706.036,848.964C706.036,848.964 664.592,644.633 654.276,571.584C646.761,518.368 644.649,462.91 644.14,410.67C643.643,359.775 646.263,295.673 651.218,258.142C654.539,232.99 673.873,185.481 673.873,185.481C673.873,185.481 619.865,224.113 598.045,248.766C571.251,279.039 536.227,324.419 513.104,367.121C488.714,412.164 469.424,467.363 451.705,519.023C432.605,574.709 410.42,639.097 398.504,701.239C386.321,764.778 379.792,839.957 378.606,900.254C377.536,954.666 384.11,1015.61 391.39,1063.02C397.741,1104.38 411.957,1151 422.283,1184.69C430.712,1212.2 453.349,1265.21 453.349,1265.21L583.551,1081.27C583.551,1081.27 534.914,1055.74 516.053,1040.25C498.24,1025.62 466.368,998.138 470.38,988.337C474.393,978.536 519.928,981.997 540.128,981.446C557.314,980.978 587.698,996.688 591.58,985.036C595.462,973.385 570.399,936.829 563.42,911.538C555.336,882.243 546.796,843.824 543.075,809.264C539.265,773.869 541.083,729.872 540.558,699.168C540.135,674.462 539.922,625.041 539.922,625.041C539.922,625.041 575.925,682.56 594.199,705.885C610.849,727.136 632.943,743.722 649.569,764.992C668.208,788.838 706.036,848.964 706.036,848.964Z" style="fill:url(#_Linear3);"/>
                <path d="M2214.92,1256.22C2214.92,1256.22 2369.24,1180.55 2430.49,1135.89C2471.38,1106.07 2511.43,1074.91 2548.98,1040.99C2586.89,1006.74 2627.32,966.494 2657.96,930.375C2685.96,897.368 2715.3,853.933 2732.81,824.271C2746.03,801.893 2756.24,774.308 2763.03,752.404C2768.99,733.15 2773.53,692.851 2773.53,692.851C2773.53,692.851 2798.35,777.638 2800.17,820.359C2802,863.079 2792.73,906.712 2784.48,949.174C2775.62,994.719 2762.04,1051.83 2747.06,1093.63C2733.73,1130.85 2712.23,1164.61 2694.63,1200.01C2676.87,1235.74 2660.94,1273.31 2640.5,1308.01C2620.05,1342.71 2596.35,1375.96 2571.95,1408.2C2547.55,1440.45 2518.63,1475.12 2494.1,1501.5C2472.53,1524.69 2444.66,1548.05 2424.75,1566.46C2408.17,1581.8 2374.61,1612.01 2374.61,1612.01C2374.61,1612.01 2352.52,1582.74 2342.08,1567.68C2330.43,1550.88 2318.46,1529.13 2304.72,1511.24C2290.68,1492.98 2257.89,1458.09 2257.89,1458.09C2257.89,1458.09 2292.33,1448.44 2308.33,1440.67C2326.88,1431.66 2350.37,1418.41 2369.18,1404.03C2388.44,1389.3 2407.42,1369.54 2423.92,1352.28C2439.61,1335.85 2456.54,1316.43 2468.15,1300.42C2478.13,1286.66 2490.05,1267.88 2493.56,1256.22C2496.08,1247.88 2497.19,1234.05 2489.26,1230.46C2478.41,1225.55 2448.78,1226.02 2428.5,1226.77C2402.96,1227.71 2366.7,1231.87 2335.99,1236.11C2300.39,1241.02 2214.92,1256.22 2214.92,1256.22Z" style="fill:url(#_Linear4);"/>
            </g>
            <g>
                <path d="M1941.07,1014.51C1941.07,1014.51 1966.97,970.964 1985.07,953.699C2005.07,934.631 2035.73,915.437 2061.06,900.106C2085.34,885.411 2113.05,873.443 2137.05,861.711C2159.55,850.71 2181.67,838.72 2205.04,829.716C2230.53,819.899 2268.48,809.096 2289.95,802.814C2304.41,798.581 2335.85,788.673 2333.86,792.025C2331.86,795.377 2297.12,813.601 2277.99,822.926C2254.06,834.594 2219.74,849.479 2190.26,862.031C2151.07,878.721 2108.83,902.493 2078.37,919.585C2053.96,933.279 2030.37,948.763 2007.48,964.583C1984.7,980.333 1941.07,1014.51 1941.07,1014.51Z" style="fill:rgb(0,10,43);"/>
                <path d="M946.573,535.099C944.307,538.165 981.768,582.159 994.567,602.29C1005.45,619.403 1016.03,639.084 1023.36,655.882C1029.97,671.029 1034.37,687.09 1038.56,703.076C1042.83,719.34 1046.16,750.506 1048.96,753.469C1051.76,756.431 1055.81,731.92 1055.36,720.849C1054.69,704.451 1052.19,676.066 1044.96,655.082C1037.09,632.256 1024.56,603.889 1008.17,583.892C991.767,563.895 948.84,532.033 946.573,535.099Z" style="fill:rgb(0,10,43);"/>
                <path d="M1345.62,871.047C1352.73,860.007 1455.17,771.518 1517.66,738.115C1580.16,704.711 1658.84,686.259 1720.57,670.624C1775.35,656.749 1899.3,637.222 1888.05,644.304C1876.8,651.386 1721.91,686.443 1653.08,713.118C1590.91,737.213 1526.31,778.034 1475.07,804.355C1431.89,826.533 1338.53,882.088 1345.62,871.047Z" style="fill:rgb(0,10,43);"/>
            </g>
        </g>
    </g>
    <defs>
        <linearGradient id="_Linear1" x1="0" y1="0" x2="1" y2="0" gradientUnits="userSpaceOnUse" gradientTransform="matrix(434.798,-1243.96,1243.96,434.798,1256.98,1445.16)"><stop offset="0" style="stop-color:rgb(234,39,90);stop-opacity:1"/><stop offset="1" style="stop-color:rgb(35,57,125);stop-opacity:1"/></linearGradient>
        <linearGradient id="_Linear3" x1="0" y1="0" x2="1" y2="0" gradientUnits="userSpaceOnUse" gradientTransform="matrix(-62.7309,-750.648,750.648,-62.7309,591.659,1078.32)"><stop offset="0" style="stop-color:rgb(0,137,255);stop-opacity:1"/><stop offset="1" style="stop-color:rgb(0,255,226);stop-opacity:1"/></linearGradient>
        <linearGradient id="_Linear4" x1="0" y1="0" x2="1" y2="0" gradientUnits="userSpaceOnUse" gradientTransform="matrix(585.484,0,0,919.16,2214.92,1152.43)"><stop offset="0" style="stop-color:rgb(0,137,255);stop-opacity:1"/><stop offset="1" style="stop-color:rgb(0,255,226);stop-opacity:1"/></linearGradient>
    </defs>
</svg>
