<?xml version="1.0" encoding="UTF-8" standalone="no"?>
<!DOCTYPE svg PUBLIC "-//W3C//DTD SVG 1.1//EN" "http://www.w3.org/Graphics/SVG/1.1/DTD/svg11.dtd">
<svg width="100%" height="100%" viewBox="0 0 1024 1024" version="1.1" xmlns="http://www.w3.org/2000/svg" xmlns:xlink="http://www.w3.org/1999/xlink" xml:space="preserve" xmlns:serif="http://www.serif.com/" style="fill-rule:evenodd;clip-rule:evenodd;stroke-linejoin:round;stroke-miterlimit:2;">
    <g id="NUIT-V2" serif:id="NUIT V2" transform="matrix(0.359142,0,0,0.359142,-15.9747,-32.6398)">
        <g id="iris">
            <path d="M717.135,1835.7C704.474,1848.54 706.325,1907.69 708.617,1943.75C711.23,1984.88 721.203,2043.94 732.817,2082.45C742.725,2115.3 763.963,2155.42 778.3,2174.79C787.63,2187.39 805.751,2195.48 818.837,2198.67C831.231,2201.69 846.665,2201.66 856.814,2193.93C869.424,2184.32 886.348,2160.45 894.495,2141.05C902.642,2121.65 904.06,2097.12 905.696,2077.53C907.195,2059.57 905.786,2038.69 904.309,2023.48C903.086,2010.9 902.02,1997.82 896.831,1986.3C890.668,1972.6 879.6,1954.4 867.332,1941.33C848.624,1921.39 809.616,1884.3 784.583,1866.69C764.344,1852.46 729.796,1822.86 717.135,1835.7Z" style="fill:rgb(0,189,221);"/>
            <clipPath id="_clip1">
                <path d="M717.135,1835.7C704.474,1848.54 706.325,1907.69 708.617,1943.75C711.23,1984.88 721.203,2043.94 732.817,2082.45C742.725,2115.3 763.963,2155.42 778.3,2174.79C787.63,2187.39 805.751,2195.48 818.837,2198.67C831.231,2201.69 846.665,2201.66 856.814,2193.93C869.424,2184.32 886.348,2160.45 894.495,2141.05C902.642,2121.65 904.06,2097.12 905.696,2077.53C907.195,2059.57 905.786,2038.69 904.309,2023.48C903.086,2010.9 902.02,1997.82 896.831,1986.3C890.668,1972.6 879.6,1954.4 867.332,1941.33C848.624,1921.39 809.616,1884.3 784.583,1866.69C764.344,1852.46 729.796,1822.86 717.135,1835.7Z"/>
            </clipPath>
            <g clip-path="url(#_clip1)">
                <path d="M782.304,1860.48C764.837,1862.98 769.611,1940.13 773.48,1979.84C777.538,2021.49 794.638,2082.24 806.651,2110.38C813.798,2127.12 834.266,2144.85 845.561,2148.69C855.865,2152.2 868.357,2142.45 874.416,2133.41C882,2122.1 887.59,2097.72 891.063,2080.79C894.355,2064.74 894.827,2048.2 895.253,2031.82C895.688,2015.1 896.5,1991.6 893.671,1980.43C891.877,1973.35 883.255,1970.17 878.283,1964.82C859.722,1944.83 799.772,1857.98 782.304,1860.48Z" style="fill:rgb(23,41,60);"/>
            </g>
            <path d="M1446.06,2045.04C1408.25,2068.9 1410.39,2134.41 1410.68,2174.42C1410.97,2213.33 1429.27,2259.07 1447.83,2285.09C1464.68,2308.7 1498.53,2324.02 1522.05,2330.51C1543.66,2336.47 1568.92,2334.03 1588.98,2324.04C1610.33,2313.4 1635.57,2287.49 1650.16,2266.68C1664.03,2246.9 1670.78,2222.64 1676.54,2199.18C1683.09,2172.5 1688.48,2133.95 1689.46,2106.61C1690.31,2082.68 1686.97,2050.25 1682.39,2035.12C1679.69,2026.17 1671.35,2015.47 1662.01,2015.86C1622.62,2017.51 1487.95,2018.61 1446.06,2045.04Z" style="fill:rgb(0,189,221);"/>
            <clipPath id="_clip2">
                <path d="M1446.06,2045.04C1408.25,2068.9 1410.39,2134.41 1410.68,2174.42C1410.97,2213.33 1429.27,2259.07 1447.83,2285.09C1464.68,2308.7 1498.53,2324.02 1522.05,2330.51C1543.66,2336.47 1568.92,2334.03 1588.98,2324.04C1610.33,2313.4 1635.57,2287.49 1650.16,2266.68C1664.03,2246.9 1670.78,2222.64 1676.54,2199.18C1683.09,2172.5 1688.48,2133.95 1689.46,2106.61C1690.31,2082.68 1686.97,2050.25 1682.39,2035.12C1679.69,2026.17 1671.35,2015.47 1662.01,2015.86C1622.62,2017.51 1487.95,2018.61 1446.06,2045.04Z"/>
            </clipPath>
            <g clip-path="url(#_clip2)">
                <path d="M1512.35,2031.39C1496.23,2052.83 1494.93,2112.45 1493.46,2145.2C1492.22,2172.91 1498.4,2206.95 1503.54,2227.83C1507.32,2243.18 1516.53,2261.51 1524.29,2270.47C1530.41,2277.55 1541.78,2282.57 1550.08,2281.59C1558.37,2280.62 1567.55,2271.95 1574.05,2264.63C1580.79,2257.03 1585.98,2246.05 1590.52,2236.03C1596.23,2223.43 1603.67,2205.12 1608.32,2189.02C1613.44,2171.3 1619.17,2147.38 1621.24,2129.67C1623.05,2114.15 1621.78,2098.39 1620.73,2082.8C1619.64,2066.42 1619.76,2042.43 1614.67,2031.39C1610.67,2022.73 1599.74,2016.54 1590.2,2016.54C1573.14,2016.54 1528.23,2010.28 1512.35,2031.39Z" style="fill:rgb(23,41,60);"/>
            </g>
        </g>
    </g>
</svg>
